<svg xmlns="http://www.w3.org/2000/svg"
    xmlns:xlink="http://www.w3.org/1999/xlink">
    <defs>
        <symbol viewBox="0 0 48 48" id="auth">
            <path fill="none" stroke="currentColor" stroke-linecap="round" stroke-linejoin="round" d="M42.5 6.433H22.267A2.567 2.567 0 0 0 19.7 8.999v8.342m8.324 18.608h-5.757a2.567 2.567 0 0 1-2.567-2.567v-8.341"></path>
            <path fill="none" stroke="currentColor" stroke-linecap="round" stroke-linejoin="round" d="M42.5 35.949L29.819 41.46a1.283 1.283 0 0 1-1.795-1.177V14.406a2.567 2.567 0 0 1 1.544-2.353L42.5 6.433Z"></path>
            <circle cx="9.583" cy="21.191" r="4.083" fill="none" stroke="currentColor" stroke-linecap="round" stroke-linejoin="round"></circle>
            <path fill="none" stroke="currentColor" stroke-linecap="round" stroke-linejoin="round" d="M25.123 25.273v-4.082h0h-11.462m8.783 2.354v-2.354"></path>
        </symbol>
        <symbol viewBox="0 0 48 48" id="purchased">
            <path fill="none" stroke="currentColor" stroke-linecap="round" stroke-linejoin="round" d="M8.038 16.341h31.925a3.537 3.537 0 0 1 3.537 3.537v18.986a3.538 3.538 0 0 1-3.538 3.538H8.037A3.537 3.537 0 0 1 4.5 38.865V19.88a3.538 3.538 0 0 1 3.538-3.538Z"></path>
            <rect width="4.126" height="4.127" x="19.874" y="19.353" fill="none" stroke="currentColor" stroke-linecap="round" stroke-linejoin="round" rx="2.063"></rect>
            <path fill="none" stroke="currentColor" stroke-linecap="round" stroke-linejoin="round" d="M35.367 19.353h0a2.063 2.063 0 0 1 2.063 2.063h0a2.063 2.063 0 0 1-2.063 2.064h0a2.063 2.063 0 0 1-2.063-2.064h0a2.063 2.063 0 0 1 2.063-2.063Zm-13.473-7.141a6.612 6.612 0 1 1 13.224 0m-13.224 0v4.15m13.224-4.15v3.913m-22.487-3.331a6.612 6.612 0 0 1 10.432-5.4m-10.432 5.4v3.262M8.13 21.842a2.063 2.063 0 1 1 4.126 0m-.001 14.897a2.063 2.063 0 1 1-4.126 0m4.126 0V21.84m-4.125.002V36.74"></path>
        </symbol>
        <symbol viewBox="0 0 32 32" id="compliance">
            <path fill="currentColor" d="M20 18v6.5c0 1.9 1.1 3.7 2.9 4.5l2.1 1l2.1-1c1.7-.8 2.9-2.6 2.9-4.5V18H20zm8 6.5c0 1.2-.7 2.2-1.7 2.7l-1.3.6l-1.3-.6c-1-.5-1.7-1.6-1.7-2.7V20h6v4.5zM16 20c-2.2 0-4-1.8-4-4s1.8-4 4-4s4 1.8 4 4h-2c0-1.1-.9-2-2-2s-2 .9-2 2s.9 2 2 2v2z"></path>
            <path fill="currentColor" d="M16 25c-5 0-9-4-9-9s4-9 9-9s9 4 9 9h-2c0-3.9-3.1-7-7-7s-7 3.1-7 7s3.1 7 7 7v2z"></path>
            <path fill="currentColor" d="M16 30C8.3 30 2 23.7 2 16S8.3 2 16 2s14 6.3 14 14h-2c0-6.6-5.4-12-12-12S4 9.4 4 16s5.4 12 12 12v2z"></path>
        </symbol>
        <symbol viewBox="0 0 128 128" id="woocommerce">
            <path fill="#7f54b3" d="M116.3 89.1H11.7C5.2 89.1 0 83.9 0 77.4v-40C0 31 5.2 25.8 11.7 25.8h104.7c6.4 0 11.7 5.2 11.7 11.7v40c-.1 6.4-5.3 11.6-11.8 11.6z"></path>
            <path fill="#FFF" d="M13.8 76.7s2.8 11.8 8.5 3.9s11.2-20.3 11.2-20.3s.4-3.1 2 3.7S44 80 44 80s6.3 7.9 8.9-.4c-1-11 2.8-31 6.7-40.6c1.6-8.5-7.3-6.1-8.1-4.1s-6.3 14.8-6.7 28.2c0 0-4.7-12.8-5.1-17.4c-.4-4.7-5.3-5.9-8.1-1.4S20.3 66.2 20.3 66.2l-5.5-28.4s-5.5-7.3-8.7 1.6c0 0 5.7 34.9 7.7 37.3zm73.2-31c-8.5-14.2-21.1-3.4-21.1-3.4s-9.6 11.1-5.3 26.2c6.9 14.9 16.6 8.3 19.2 7.1c2.7-1.3 14.1-14.3 7.2-29.9zm-6.5 12.5c0 5.9-4.9 11.4-8.9 10.2c-2.2-1.3-3.6-4.8-3.6-10.8c2-9.7 6.4-11 8.7-10.8c4.3 2.3 4.1 7.4 3.8 11.4zm38.4-12.5c-8.5-14.2-21.1-3.4-21.1-3.4s-9.6 11.1-5.3 26.2c6.9 14.9 16.6 8.3 19.2 7.1c2.6-1.3 14.1-14.3 7.2-29.9zm-6.5 12.5c0 5.9-4.9 11.4-8.9 10.2c-2.2-1.3-3.6-4.8-3.6-10.8c2-9.7 6.4-11 8.7-10.8c4.2 2.3 4 7.4 3.8 11.4z"></path>
            <path fill="#7f54b3" d="m61.3 89.1l22.3 13.1l-4.7-13.1l-12.8-3.6z"></path>
        </symbol>
        <symbol viewBox="0 0 640 512" id="wix">
            <path fill="currentColor" d="M393.38 131.69c0 13.03 2.08 32.69-28.68 43.83c-9.52 3.45-15.95 9.66-15.95 9.66c0-31 4.72-42.22 17.4-48.86c9.75-5.11 27.23-4.63 27.23-4.63zm-115.8 35.54l-34.24 132.66l-28.48-108.57c-7.69-31.99-20.81-48.53-48.43-48.53c-27.37 0-40.66 16.18-48.43 48.53L89.52 299.89L55.28 167.23C49.73 140.51 23.86 128.96 0 131.96l65.57 247.93s21.63 1.56 32.46-3.96c14.22-7.25 20.98-12.84 29.59-46.57c7.67-30.07 29.11-118.41 31.12-124.7c4.76-14.94 11.09-13.81 15.4 0c1.97 6.3 23.45 94.63 31.12 124.7c8.6 33.73 15.37 39.32 29.59 46.57c10.82 5.52 32.46 3.96 32.46 3.96l65.57-247.93c-24.42-3.07-49.82 8.93-55.3 35.27zm115.78 5.21s-4.1 6.34-13.46 11.57c-6.01 3.36-11.78 5.64-17.97 8.61c-15.14 7.26-13.18 13.95-13.18 35.2v152.07s16.55 2.09 27.37-3.43c13.93-7.1 17.13-13.95 17.26-44.78V181.41l-.02.01v-8.98zm163.44 84.08L640 132.78s-35.11-5.98-52.5 9.85c-13.3 12.1-24.41 29.55-54.18 72.47c-.47.73-6.25 10.54-13.07 0c-29.29-42.23-40.8-60.29-54.18-72.47c-17.39-15.83-52.5-9.85-52.5-9.85l83.2 123.74l-82.97 123.36s36.57 4.62 53.95-11.21c11.49-10.46 17.58-20.37 52.51-70.72c6.81-10.52 12.57-.77 13.07 0c29.4 42.38 39.23 58.06 53.14 70.72c17.39 15.83 53.32 11.21 53.32 11.21L556.8 256.52z"></path>
        </symbol>
        <symbol viewBox="0 0 512 512" id="ninja">
            <path fill="currentColor" d="M255.063 21c-46.697 0-88.406 27.674-117.844 70.656c-29.44 42.982-47.25 101.566-47.25 166.094c0 64.527 17.81 123.112 47.25 166.094c29.437 42.982 71.146 70.656 117.843 70.656c46.696 0 88.405-27.674 117.843-70.656c29.44-42.982 47.25-101.567 47.25-166.094c0-64.528-17.81-123.112-47.25-166.094C343.468 48.674 301.76 21 255.062 21zM396.28 200.344c3.365 18.28 5.19 37.527 5.19 57.406c0 18.535-1.594 36.522-4.533 53.688c-37.91 12.904-87.436 20.812-141.656 20.812c-54.45 0-104.125-8.235-142.186-21.313c-2.884-17.014-4.438-34.833-4.438-53.187c0-19.868 1.827-39.103 5.188-57.375c37.903 14.565 87.35 23.25 141.47 23.25c54.136 0 103.183-8.707 140.967-23.28zM177.157 241c-15.137-.162-30.97 3.458-47.375 10.313c14.562 51.423 87.08 42.483 102.157 10.156c-17.004-13.822-35.318-20.262-54.78-20.47zm155.75 0c-19.462.208-37.808 6.648-54.812 20.47c15.078 32.326 87.596 41.266 102.156-10.158c-16.405-6.854-32.206-10.474-47.344-10.312z"></path>
        </symbol>
        <symbol viewBox="0 0 24 24" id="insights">
            <path fill="currentColor" d="M21 8c-1.45 0-2.26 1.44-1.93 2.51l-3.55 3.56c-.3-.09-.74-.09-1.04 0l-2.55-2.55C12.27 10.45 11.46 9 10 9c-1.45 0-2.27 1.44-1.93 2.52l-4.56 4.55C2.44 15.74 1 16.55 1 18c0 1.1.9 2 2 2c1.45 0 2.26-1.44 1.93-2.51l4.55-4.56c.3.09.74.09 1.04 0l2.55 2.55C12.73 16.55 13.54 18 15 18c1.45 0 2.27-1.44 1.93-2.52l3.56-3.55c1.07.33 2.51-.48 2.51-1.93c0-1.1-.9-2-2-2z"></path>
            <path fill="currentColor" d="m15 9l.94-2.07L18 6l-2.06-.93L15 3l-.92 2.07L12 6l2.08.93zM3.5 11L4 9l2-.5L4 8l-.5-2L3 8l-2 .5L3 9z"></path>
        </symbol>
        <symbol viewBox="0 0 24 24" id="policy">
            <g fill="none" stroke="currentColor" stroke-linecap="round" stroke-linejoin="round" stroke-width="1.5">
                <path d="M20 12V5.749a.6.6 0 0 0-.176-.425l-3.148-3.148A.6.6 0 0 0 16.252 2H4.6a.6.6 0 0 0-.6.6v18.8a.6.6 0 0 0 .6.6H13M8 10h8M8 6h4m-4 8h3"></path>
                <path d="M16 2v3.4a.6.6 0 0 0 .6.6H20m-.008 9.125l2.556.649c.266.068.453.31.445.584C22.821 22.116 19.5 23 19.5 23s-3.321-.884-3.493-6.642a.588.588 0 0 1 .445-.584l2.556-.649c.323-.082.661-.082.984 0Z"></path>
            </g>
        </symbol>
        <symbol viewBox="0 0 256 256" id="magento">
            <circle cx="129.141" cy="127.998" r="121.376" fill="#27140D"></circle>
            <path fill="#F26724" d="M129.141 12.571c16 0 30.857 3.429 44.571 9.143c13.714 5.714 26.285 13.714 36.57 25.143c10.286 10.285 19.43 22.856 25.143 36.57c5.715 13.715 9.143 29.714 9.143 44.571s-3.428 30.857-9.143 44.571c-5.714 13.714-13.714 26.285-25.142 36.571c-10.286 10.286-22.857 19.428-36.571 25.143c-13.714 5.714-29.714 9.142-44.57 9.142c-14.858 0-30.858-3.428-44.572-9.142c-13.714-5.715-26.285-13.715-36.57-25.143c-10.286-10.286-19.429-22.857-25.143-36.57c-5.714-13.715-9.143-29.715-9.143-44.572c0-14.857 3.429-30.856 9.143-44.57C28.57 69.712 36.57 57.141 47.999 46.856C58.285 36.57 70.856 27.428 84.57 21.714c13.714-5.714 28.571-9.143 44.571-9.143m0-12.571C58.285 0 0 57.142 0 127.998s57.142 127.999 127.998 127.999s127.999-57.143 127.999-127.999S199.997 0 129.14 0Z"></path>
            <path fill="#FDDFDD" d="m139.427 98.284l20.57 11.429v84.57l-30.856 17.143l-30.857-17.143v-84.57l20.572-11.429v83.428l10.285 5.714l10.286-5.714V98.284ZM129.14 44.571l73.142 41.142v84.57l-20.571 11.429V98.284l-52.57-29.713L76.57 98.284v83.428L56 169.14V85.713l73.141-41.142Z"></path>
        </symbol>
        <symbol viewBox="0 0 256 292" id="shopify">
            <path fill="#95BF46" d="M223.774 57.34c-.201-1.46-1.48-2.268-2.537-2.357a19614 19614 0 0 0-23.383-1.743s-15.507-15.395-17.209-17.099c-1.703-1.703-5.029-1.185-6.32-.805c-.19.056-3.388 1.043-8.678 2.68c-5.18-14.906-14.322-28.604-30.405-28.604c-.444 0-.901.018-1.358.044C129.31 3.407 123.644.779 118.75.779c-37.465 0-55.364 46.835-60.976 70.635c-14.558 4.511-24.9 7.718-26.221 8.133c-8.126 2.549-8.383 2.805-9.45 10.462C21.3 95.806.038 260.235.038 260.235l165.678 31.042l89.77-19.42S223.973 58.8 223.775 57.34ZM156.49 40.848l-14.019 4.339c.005-.988.01-1.96.01-3.023c0-9.264-1.286-16.723-3.349-22.636c8.287 1.04 13.806 10.469 17.358 21.32Zm-27.638-19.483c2.304 5.773 3.802 14.058 3.802 25.238c0 .572-.005 1.095-.01 1.624c-9.117 2.824-19.024 5.89-28.953 8.966c5.575-21.516 16.025-31.908 25.161-35.828Zm-11.131-10.537c1.617 0 3.246.549 4.805 1.622c-12.007 5.65-24.877 19.88-30.312 48.297l-22.886 7.088C75.694 46.16 90.81 10.828 117.72 10.828Z"></path>
            <path fill="#5E8E3E" d="M221.237 54.983a19614 19614 0 0 0-23.383-1.743s-15.507-15.395-17.209-17.099c-.637-.634-1.496-.959-2.394-1.099l-12.527 256.233l89.762-19.418S223.972 58.8 223.774 57.34c-.201-1.46-1.48-2.268-2.537-2.357"></path>
            <path fill="#FFF" d="m135.242 104.585l-11.069 32.926s-9.698-5.176-21.586-5.176c-17.428 0-18.305 10.937-18.305 13.693c0 15.038 39.2 20.8 39.2 56.024c0 27.713-17.577 45.558-41.277 45.558c-28.44 0-42.984-17.7-42.984-17.7l7.615-25.16s14.95 12.835 27.565 12.835c8.243 0 11.596-6.49 11.596-11.232c0-19.616-32.16-20.491-32.16-52.724c0-27.129 19.472-53.382 58.778-53.382c15.145 0 22.627 4.338 22.627 4.338"></path>
        </symbol>
        <symbol viewBox="0 0 24 24" id="encrypt">
            <path fill="currentColor" d="M11.465 14.5h1.07q.181 0 .317-.151q.136-.152.086-.334l-.475-2.605q.443-.154.73-.545q.288-.392.288-.865q0-.61-.436-1.046t-1.047-.435q-.611 0-1.045.435q-.434.435-.434 1.046q0 .473.288.865q.287.39.73.545l-.475 2.605q-.05.182.086.334q.136.151.317.151ZM12 20.842q-.137 0-.287-.025t-.28-.075Q8.48 19.617 6.74 16.926Q5 14.235 5 11.1V6.817q0-.514.293-.926q.293-.412.757-.597l5.385-2q.292-.106.565-.106q.273 0 .565.106l5.385 2q.464.185.757.597t.293.926V11.1q0 3.135-1.74 5.826t-4.692 3.816q-.131.05-.281.075t-.287.025Zm0-.942q2.6-.825 4.3-3.3t1.7-5.5V6.798q0-.192-.106-.346q-.106-.154-.298-.23l-5.384-2q-.097-.04-.212-.04t-.212.04l-5.384 2q-.192.076-.298.23Q6 6.606 6 6.798V11.1q0 3.025 1.7 5.5t4.3 3.3Zm0-7.862Z"></path>
        </symbol>
        <symbol viewBox="0 0 24 24" id="finance">
            <path fill="currentColor" d="M8.692 12.265V7.5q0-.343.233-.575q.232-.233.575-.233h.23q.246 0 .412.166q.166.166.166.411v4.996l-.03-.028q-.325-.339-.778-.339q-.454 0-.779.339l-.029.028Zm4.346 2.231V3.5q0-.343.233-.575q.232-.233.575-.233h.23q.246 0 .412.166q.166.166.166.411v9.612l-1.616 1.615Zm-8.73 2.142V11.5q0-.343.232-.575q.232-.233.575-.233h.231q.245 0 .411.166q.166.166.166.411v3.754l-1.615 1.615Zm1.085 3.912q-.335 0-.463-.305t.116-.549l3.908-3.908q.217-.217.535-.242q.319-.025.565.192l2.984 2.566l6.754-6.754H18q-.213 0-.356-.144q-.144-.144-.144-.357t.144-.356q.144-.143.356-.143h2.692q.344 0 .576.232q.232.232.232.576v2.692q0 .213-.144.356q-.144.144-.357.144t-.356-.144q-.143-.143-.143-.356v-1.792l-6.904 6.904q-.217.217-.535.242q-.319.025-.565-.192l-2.984-2.566l-3.758 3.758q-.065.06-.161.103t-.2.043Z"></path>
        </symbol>
        <symbol viewBox="0 0 24 24" id="contact">
            <path fill="currentColor" d="M15 11h5q.425 0 .713-.288T21 10V7q0-.425-.288-.713T20 6h-5q-.425 0-.713.288T14 7v3q0 .425.288.713T15 11Zm2.5-2.25l1.85-1.3q.2-.15.425-.038t.225.363q0 .025-.175.35l-1.75 1.225q-.275.2-.575.2t-.575-.2l-1.75-1.225Q15.15 8.1 15 7.775q0-.25.225-.363t.425.038l1.85 1.3ZM2 21q-.825 0-1.413-.588T0 19V5q0-.825.588-1.413T2 3h20q.825 0 1.413.588T24 5v14q0 .825-.588 1.413T22 21H2Zm13.9-2H22V5H2v14h.1q1.05-1.875 2.9-2.938T9 15q2.15 0 4 1.063T15.9 19ZM9 14q1.25 0 2.125-.875T12 11q0-1.25-.875-2.125T9 8q-1.25 0-2.125.875T6 11q0 1.25.875 2.125T9 14Zm-4.45 5h8.9q-.85-.95-2.013-1.475T9 17q-1.275 0-2.425.525T4.55 19ZM9 12q-.425 0-.713-.288T8 11q0-.425.288-.713T9 10q.425 0 .713.288T10 11q0 .425-.288.713T9 12Zm3 0Z"></path>
        </symbol>
        <symbol viewBox="0 0 24 24" id="node">
            <path fill="currentColor" d="M5.5 22q-1.45 0-2.475-1.025T2 18.5q0-1.45 1.025-2.475T5.5 15q.45 0 .875.112t.8.313L11 11.6V8.85q-1.1-.325-1.8-1.238T8.5 5.5q0-1.45 1.025-2.475T12 2q1.45 0 2.475 1.025T15.5 5.5q0 1.2-.7 2.113T13 8.85v2.75l3.85 3.825q.375-.2.788-.313T18.5 15q1.45 0 2.475 1.025T22 18.5q0 1.45-1.025 2.475T18.5 22q-1.45 0-2.475-1.025T15 18.5q0-.45.112-.875t.313-.8L12 13.4l-3.425 3.425q.2.375.313.8T9 18.5q0 1.45-1.025 2.475T5.5 22Zm13-2q.625 0 1.063-.438T20 18.5q0-.625-.438-1.063T18.5 17q-.625 0-1.063.438T17 18.5q0 .625.438 1.063T18.5 20ZM12 7q.625 0 1.063-.438T13.5 5.5q0-.625-.438-1.063T12 4q-.625 0-1.063.438T10.5 5.5q0 .625.438 1.063T12 7ZM5.5 20q.625 0 1.063-.438T7 18.5q0-.625-.438-1.063T5.5 17q-.625 0-1.063.438T4 18.5q0 .625.438 1.063T5.5 20Z"></path>
        </symbol>
        <symbol viewBox="0 0 24 24" id="search">
            <path fill="currentColor" d="M11 12q-1.65 0-2.825-1.175T7 8q0-1.65 1.175-2.825T11 4q1.65 0 2.825 1.175T15 8q0 1.65-1.175 2.825T11 12Zm0-2q.825 0 1.413-.588T13 8q0-.825-.588-1.413T11 6q-.825 0-1.413.588T9 8q0 .825.588 1.413T11 10Zm10.4 12.8l-2.5-2.5q-.525.3-1.125.5T16.5 21q-1.875 0-3.187-1.313T12 16.5q0-1.875 1.313-3.188T16.5 12q1.875 0 3.188 1.313T21 16.5q0 .675-.2 1.275t-.5 1.125l2.5 2.5q.275.275.275.7t-.275.7q-.275.275-.7.275t-.7-.275ZM16.5 19q1.05 0 1.775-.725T19 16.5q0-1.05-.725-1.775T16.5 14q-1.05 0-1.775.725T14 16.5q0 1.05.725 1.775T16.5 19ZM3 18v-.775q0-.85.425-1.575t1.175-1.1q1.275-.65 2.875-1.1t3.55-.45q-.3.45-.513.963t-.337 1.062q-1.5.125-2.675.513t-1.975.812q-.25.125-.388.363T5 17.225V18h5.175q.125.55.338 1.05t.512.95H5q-.825 0-1.413-.588T3 18Zm8-10Zm-.825 10Z"></path>
        </symbol>
        <symbol viewBox="0 0 24 24" id="multiple">
            <path fill="currentColor" d="M16 17v2H2v-2s0-4 7-4s7 4 7 4m-3.5-9.5A3.5 3.5 0 1 0 9 11a3.5 3.5 0 0 0 3.5-3.5m3.44 5.5A5.32 5.32 0 0 1 18 17v2h4v-2s0-3.63-6.06-4M15 4a3.39 3.39 0 0 0-1.93.59a5 5 0 0 1 0 5.82A3.39 3.39 0 0 0 15 11a3.5 3.5 0 0 0 0-7Z"></path>
        </symbol>
        <symbol viewBox="0 0 24 24" id="server">
            <path fill="currentColor" d="M3 1h16a1 1 0 0 1 1 1v4a1 1 0 0 1-1 1H3a1 1 0 0 1-1-1V2a1 1 0 0 1 1-1m0 8h16a1 1 0 0 1 1 1v.67l-2.5-1.11l-6.5 2.88V15H3a1 1 0 0 1-1-1v-4a1 1 0 0 1 1-1m0 8h8c.06 2.25 1 4.4 2.46 6H3a1 1 0 0 1-1-1v-4a1 1 0 0 1 1-1M8 5h1V3H8v2m0 8h1v-2H8v2m0 8h1v-2H8v2M4 3v2h2V3H4m0 8v2h2v-2H4m0 8v2h2v-2H4m13.5-7l4.5 2v3c0 2.78-1.92 5.37-4.5 6c-2.58-.63-4.5-3.22-4.5-6v-3l4.5-2m0 1.94L15 15.06v2.66c0 1.54 1.07 2.98 2.5 3.34v-7.12Z"></path>
        </symbol>
        <symbol viewBox="0 0 14 14" id="encryption">
            <path fill="none" stroke="currentColor" stroke-linecap="round" stroke-linejoin="round" d="M.646 5.406v3.15M.646.5v3.15m0 6.663v3.15M6.777.5v3.15M8.654.5v3.15M2.62 5.406v3.15m.017-6.882a1.174 1.174 0 1 1 2.349 0v.783a1.174 1.174 0 0 1-2.35 0v-.783ZM4.415 6.58a1.174 1.174 0 0 1 2.349 0v.783a1.174 1.174 0 1 1-2.349 0v-.782Zm-1.778 4.925a1.174 1.174 0 0 1 2.349 0v.783a1.174 1.174 0 0 1-2.35 0v-.783ZM8 9.5h5c.3 0 .5.2.5.5v3c0 .3-.2.5-.5.5H8c-.3 0-.5-.2-.5-.5v-3c0-.3.2-.5.5-.5Zm.5 0v-1c0-1.1.9-2 2-2s2 .9 2 2v1"></path>
        </symbol>
        <symbol viewBox="0 0 14 14" id="discount">
            <g fill="none" stroke="currentColor" stroke-linecap="round" stroke-linejoin="round">
                <path d="M.5 11a1 1 0 0 0 .998 1h11.004a1 1 0 0 0 .998-1V8.966a2.037 2.037 0 0 1 0-3.932V3a1 1 0 0 0-.998-1H1.498A1 1 0 0 0 .5 3v2.03a2.037 2.037 0 0 1 0 3.94V11Zm4.02-1.5l5-5"></path>
                <path d="M5.02 5.5a.5.5 0 1 0 0-1a.5.5 0 0 0 0 1Zm4 4a.5.5 0 1 0 0-1a.5.5 0 0 0 0 1Z"></path>
            </g>
        </symbol>
        <symbol viewBox="0 0 14 14" id="legal">
            <path fill="none" stroke="currentColor" stroke-linecap="round" stroke-linejoin="round" d="M5.5 9.5L3 4L.5 9.5a2.5 2.5 0 0 0 5 0Zm8 0L11 4L8.5 9.5a2.5 2.5 0 0 0 5 0ZM1.5 4h11M7 4V2"></path>
        </symbol>
        <symbol viewBox="0 0 32 32" id="idm"><path fill="currentColor" d="M15 20H9a3 3 0 0 0-3 3v2h2v-2a1 1 0 0 1 1-1h6a1 1 0 0 1 1 1v2h2v-2a3 3 0 0 0-3-3zm-3-1a4 4 0 1 0-4-4a4 4 0 0 0 4 4zm0-6a2 2 0 1 1-2 2a2 2 0 0 1 2-2z"></path><path fill="currentColor" d="M28 19v9H4V8h12V6H4a2 2 0 0 0-2 2v20a2 2 0 0 0 2 2h24a2 2 0 0 0 2-2v-9Z"></path><path fill="currentColor" d="M20 19h6v2h-6zm2 4h4v2h-4zm10-13V8h-2.101a4.968 4.968 0 0 0-.732-1.753l1.49-1.49l-1.414-1.414l-1.49 1.49A4.968 4.968 0 0 0 26 4.101V2h-2v2.101a4.968 4.968 0 0 0-1.753.732l-1.49-1.49l-1.414 1.414l1.49 1.49A4.968 4.968 0 0 0 20.101 8H18v2h2.101a4.968 4.968 0 0 0 .732 1.753l-1.49 1.49l1.414 1.414l1.49-1.49a4.968 4.968 0 0 0 1.753.732V16h2v-2.101a4.968 4.968 0 0 0 1.753-.732l1.49 1.49l1.414-1.414l-1.49-1.49A4.968 4.968 0 0 0 29.899 10zm-7 2a3 3 0 1 1 3-3a3.003 3.003 0 0 1-3 3z"></path>
        </symbol>

        <symbol viewBox="0 0 24 24" id="group">
        <path fill="currentColor" d="M16 4c0-1.1.9-2 2-2s2 .9 2 2s-.9 2-2 2s-2-.9-2-2zm4.78 3.58A6.95 6.95 0 0 0 18 7c-.67 0-1.31.1-1.92.28c.58.55.92 1.32.92 2.15V10h5v-.57c0-.81-.48-1.53-1.22-1.85zM6 6c1.1 0 2-.9 2-2s-.9-2-2-2s-2 .9-2 2s.9 2 2 2zm1.92 1.28C7.31 7.1 6.67 7 6 7c-.99 0-1.93.21-2.78.58A2.01 2.01 0 0 0 2 9.43V10h5v-.57c0-.83.34-1.6.92-2.15zM10 4c0-1.1.9-2 2-2s2 .9 2 2s-.9 2-2 2s-2-.9-2-2zm6 6H8v-.57c0-.81.48-1.53 1.22-1.85a6.95 6.95 0 0 1 5.56 0A2.01 2.01 0 0 1 16 9.43V10zm-1 6c0-1.1.9-2 2-2s2 .9 2 2s-.9 2-2 2s-2-.9-2-2zm6 6h-8v-.57c0-.81.48-1.53 1.22-1.85a6.95 6.95 0 0 1 5.56 0A2.01 2.01 0 0 1 21 21.43V22zM5 16c0-1.1.9-2 2-2s2 .9 2 2s-.9 2-2 2s-2-.9-2-2zm6 6H3v-.57c0-.81.48-1.53 1.22-1.85a6.95 6.95 0 0 1 5.56 0A2.01 2.01 0 0 1 11 21.43V22zm2.79-9h-1.04v-1.25c0-.41-.34-.75-.75-.75s-.75.34-.75.75V13h-1.04c-.45 0-.67.54-.35.85l1.79 1.79c.2.2.51.2.71 0l1.79-1.79a.5.5 0 0 0-.36-.85z"></path>
        </symbol>

        <symbol viewBox="0 0 512 512" id="fraud"><path fill="currentColor" d="M70.533 100.452c-22.862 27.542-36.27 64.923-37.766 96.702c-.9 19.145 9.6 42.616 25.276 61.47c15.674 18.855 36.465 32.678 51.753 35.028c11.256.74 19.522-9.182 25.182-16.5c9.537-12.442 19.204-30.678 29.36-49.014c10.155-18.336 20.77-36.82 33.798-50.467c13.028-13.645 30.24-22.73 49.442-17.89c3.34 1.09 3.565 1.663 12.38 8.788c12.605 10.736 26.244 21.81 41.694 39.33l3.803 3.486l10.238-6.06c-20.92-23.726-38.623-51.403-57.006-76.168c-27.153-36.58-54.84-65.76-94.205-69.893c-36.138-3.317-74.585 18.428-93.95 41.19zm266.053-2.414c-3.507.063-7.26.632-11.217 1.733c-7.08 1.97-14.577 5.722-21.718 11.09l60.545 12.47c-.844-8.415-4.142-15.068-9.524-19.503c-4.425-3.646-10.055-5.63-16.6-5.785a38.74 38.74 0 0 0-1.487-.004zm12.787 33.34l-6.83 15.805l18.148 9.95zm-51.254 21.785c9.177 12.81 18.397 25.33 28.04 36.72c7.273-4.386 14.418-10.424 20.662-18a86.045 86.045 0 0 0 2.713-3.49zm-62.702 23.266c-8.527.283-15.98 4.993-24.262 13.67c-29.706 32.65-56.175 92.534-24.877 134.35c11.81 14.805 71.805 33.64 129.122 34.264c38.29 26.563 62.975 62.86 93.86 94.36c18.564-26.89 34.903-54.124 70.025-78.467L459.423 361.2c-26.72 8.057-36.142 26.154-50.656 41.217c-18.296-25.715-41.06-49.166-65.555-69.527c-17.72-14.73-38.605-25.1-58.11-37.434c2.437-.69-6.538-19.77-7.556-21.99c-29.352-7.035-49.364-22.817-62.138-39.367l14.25-11c13.5 17.492 35.288 33.754 73.69 35.933c19.65-2.818 29.578-6.955 35.335-11.704c5.626-4.64 8.615-10.964 12.895-20.618c1.095-6.312-.25-7.85-2.84-10.1c-1.95-1.696-5.246-3.2-8.787-4.732l-39.023 23.104l-4.886-6.094c-17.46-21.77-31.722-33.02-46.578-45.623c-3.633-3.94-7.452-6.648-12.324-6.836a25 25 0 0 0-1.72 0zM109.8 312.53c-20.436 15.367-42.69 27.405-71.017 28.307l2.978 27.315l58.107-18.873c19.65 23.613 32.977 51.093 65.314 68.364c37.673-12.64 57.61-32.233 77.46-50.98c-21.403-6.467-42.72-14.485-61.496-24.495l-14.232 34.423z"></path>
        </symbol>

        <symbol viewBox="0 0 512 104" id="woo"><g fill-rule="evenodd"><path fill="#7F54B3" d="M157.267 0H16.097C7.161 0-.07 7.303 0 16.166v53.887C0 78.987 7.233 86.22 16.167 86.22H83.03l30.56 17.017l-6.949-17.017h50.626c8.934 0 16.166-7.232 16.166-16.166V16.166C173.433 7.232 166.2 0 157.267 0ZM13.119 12.48c-1.986.14-3.475.85-4.467 2.197c-.993 1.276-1.348 2.907-1.135 4.75c4.184 26.59 8.083 44.529 11.7 53.817c1.417 3.403 3.048 5.034 4.963 4.893c2.978-.213 6.523-4.326 10.706-12.338c2.198-4.538 5.602-11.344 10.21-20.42c3.83 13.4 9.076 23.47 15.67 30.205c1.844 1.914 3.758 2.765 5.601 2.623c1.632-.141 2.908-.992 3.758-2.552c.71-1.347.993-2.908.851-4.68c-.425-6.452.213-15.457 1.986-27.014c1.843-11.912 4.112-20.492 6.877-25.597c.568-1.063.78-2.127.71-3.403c-.142-1.631-.851-2.978-2.198-4.042c-1.348-1.063-2.837-1.56-4.468-1.418c-2.056.142-3.616 1.135-4.68 3.12c-4.395 8.012-7.515 20.988-9.358 38.997C57.15 44.811 54.88 36.8 53.109 27.37c-.78-4.183-2.695-6.169-5.815-5.956c-2.127.142-3.9 1.56-5.317 4.254L26.449 55.234c-2.553-10.28-4.964-22.83-7.162-37.65c-.496-3.687-2.552-5.389-6.168-5.105Zm136.632 5.104c5.034 1.064 8.792 3.758 11.345 8.225c2.269 3.83 3.403 8.438 3.403 13.968c0 7.303-1.843 13.969-5.53 20.066c-4.255 7.09-9.785 10.636-16.663 10.636c-1.205 0-2.481-.142-3.829-.426c-5.034-1.063-8.792-3.757-11.345-8.224c-2.268-3.9-3.403-8.58-3.403-14.04c0-7.302 1.844-13.968 5.53-19.994c4.326-7.09 9.856-10.636 16.663-10.636c1.206 0 2.482.142 3.829.425Zm-2.978 38.36c2.624-2.34 4.396-5.815 5.389-10.494c.284-1.631.496-3.404.496-5.247c0-2.056-.425-4.254-1.276-6.452c-1.064-2.766-2.482-4.255-4.184-4.61c-2.552-.496-5.034.923-7.373 4.397c-1.915 2.694-3.12 5.53-3.758 8.437c-.355 1.631-.497 3.404-.497 5.177c0 2.056.425 4.254 1.276 6.452c1.064 2.765 2.482 4.254 4.184 4.609c1.772.354 3.687-.426 5.743-2.27ZM116.64 25.808c-2.553-4.467-6.382-7.161-11.345-8.225c-1.348-.283-2.623-.425-3.83-.425c-6.806 0-12.336 3.545-16.661 10.636c-3.688 6.026-5.53 12.692-5.53 19.995c0 5.46 1.134 10.139 3.402 14.039c2.553 4.467 6.311 7.161 11.345 8.224c1.347.284 2.623.426 3.83.426c6.877 0 12.407-3.545 16.661-10.636c3.688-6.097 5.53-12.763 5.53-20.066c0-5.53-1.134-10.139-3.402-13.968Zm-8.935 19.64c-.992 4.68-2.765 8.155-5.388 10.494c-2.056 1.844-3.97 2.624-5.743 2.27c-1.702-.355-3.12-1.844-4.184-4.61c-.85-2.197-1.276-4.395-1.276-6.451c0-1.773.142-3.546.497-5.177c.638-2.907 1.843-5.743 3.757-8.437c2.34-3.474 4.822-4.893 7.374-4.396c1.702.354 3.12 1.843 4.184 4.609c.85 2.198 1.276 4.396 1.276 6.452c0 1.843-.142 3.616-.497 5.247Z"></path><path d="M191.372 25.17c-4.751 4.68-7.09 10.636-7.09 17.869c0 7.728 2.339 14.039 7.019 18.79c4.68 4.75 10.777 7.16 18.364 7.16c2.198 0 4.68-.354 7.374-1.134V56.368c-2.481.71-4.609 1.064-6.452 1.064c-3.758 0-6.736-1.276-9.005-3.758c-2.269-2.552-3.404-5.956-3.404-10.28c0-4.042 1.135-7.375 3.333-9.927c2.269-2.624 5.034-3.9 8.438-3.9c2.198 0 4.537.354 7.09 1.063V19.144c-2.34-.638-4.963-.922-7.729-.922c-7.232-.07-13.188 2.27-17.938 6.949Zm49.207-7.019c-6.523 0-11.628 2.198-15.315 6.523c-3.687 4.326-5.46 10.423-5.46 18.223c0 8.438 1.844 14.89 5.46 19.357c3.616 4.467 8.934 6.736 15.883 6.736c6.735 0 11.911-2.27 15.527-6.736c3.616-4.467 5.46-10.778 5.46-18.86c0-8.084-1.844-14.323-5.53-18.72c-3.758-4.325-9.076-6.523-16.025-6.523Zm5.602 36.87C244.904 57.007 242.99 58 240.579 58c-2.269 0-3.97-.993-5.176-2.979c-1.205-1.985-1.772-5.956-1.772-11.982c0-9.289 2.34-13.898 7.09-13.898c4.963 0 7.516 4.68 7.516 14.11c-.071 5.814-.78 9.785-2.056 11.77Zm50.98-35.523l-2.553 10.849c-.638 2.765-1.276 5.601-1.843 8.508l-1.418 7.516c-1.347-7.516-3.191-16.45-5.53-26.873h-16.45l-6.17 48.286h12.338l3.332-33.254l8.438 33.254h8.792l8.083-33.183l3.475 33.183h12.904l-6.523-48.286H297.16Zm59.063 0l-2.552 10.849c-.639 2.765-1.277 5.601-1.844 8.508l-1.418 7.516c-1.347-7.516-3.191-16.45-5.53-26.873h-16.45l-6.169 48.286h12.337l3.332-33.254l8.438 33.254h8.792l8.013-33.183l3.474 33.183h12.905l-6.524-48.286h-16.804Zm40.132 29.213h11.557v-9.998h-11.557V29.85h13.33V19.57H383.31v48.285h26.447v-10.28h-13.401V48.71Zm50.129-7.658c1.347-2.198 2.056-4.467 2.056-6.806c0-4.538-1.772-8.154-5.317-10.778c-3.546-2.623-8.438-3.97-14.536-3.97h-15.174v48.285h13.047v-21.98h.213l10.564 21.98h13.756L440.67 46.017c2.481-1.135 4.467-2.766 5.814-4.964Zm-19.995-.78V28.787c3.12.07 5.318.567 6.665 1.56c1.347.992 1.985 2.552 1.985 4.821c0 3.333-2.907 5.035-8.65 5.105Zm29.707-15.102c-4.749 4.68-7.089 10.635-7.089 17.868c0 7.728 2.34 14.039 7.021 18.79c4.68 4.75 10.775 7.16 18.364 7.16c2.198 0 4.68-.354 7.372-1.134V56.368c-2.478.71-4.608 1.064-6.452 1.064c-3.756 0-6.733-1.276-9.003-3.758c-2.27-2.552-3.403-5.956-3.403-10.28c0-4.042 1.133-7.375 3.33-9.927c2.27-2.624 5.034-3.9 8.437-3.9c2.198 0 4.54.354 7.091 1.063V19.144c-2.338-.638-4.961-.922-7.725-.922c-7.164-.07-13.19 2.27-17.943 6.949Zm42.333 32.261V48.64h11.554v-9.997H498.53V29.78h13.398V19.498h-26.375v48.286h26.448V57.503H498.53v-.07Z"></path></g></symbol>

        <symbol viewBox="0 0 128 128" id="magento-full"><path fill="#F26322" d="M20.78 47.32L6.44 55.6v16.54l4.09 2.37l-.03-16.54l10.25-5.92L31 57.97V74.5l4.1-2.36V55.59z"></path><path fill="#F26322" d="m22.81 74.51l-2.04 1.19l-2.06-1.18V57.97l-4.09 2.36l.01 16.55l6.13 3.54l6.15-3.54V60.33l-4.1-2.36z"></path><path fill="#4D4D4D" d="m44.48 55.71l5.63 14.23h.05l5.49-14.23h2.14v16.3h-1.48V57.8h-.05c-.08.26-.16.52-.25.77c-.08.21-.17.45-.26.7c-.1.26-.19.5-.26.73l-4.72 12h-1.34l-4.77-11.99c-.09-.21-.18-.44-.27-.69c-.09-.25-.18-.49-.25-.72c-.09-.27-.18-.54-.27-.8h-.05v14.21H42.4v-16.3h2.08zM62.1 72.08a3.5 3.5 0 0 1-1.22-.61c-.34-.28-.62-.63-.81-1.03c-.2-.41-.3-.89-.3-1.43c0-.7.13-1.27.39-1.71c.25-.44.62-.8 1.05-1.06c.44-.27.95-.47 1.54-.6c.62-.14 1.25-.25 1.88-.32c.58-.06 1.07-.13 1.47-.2c.4-.07.73-.16.98-.26c.25-.11.43-.25.55-.42c.11-.18.17-.42.17-.72v-.23c0-.8-.24-1.4-.73-1.79c-.49-.39-1.19-.58-2.1-.58c-2.1 0-3.2.87-3.31 2.62h-1.39c.08-1.14.5-2.05 1.27-2.74c.77-.68 1.91-1.03 3.43-1.03c1.29 0 2.31.29 3.05.86c.74.57 1.12 1.5 1.12 2.79v6.4c0 .35.07.6.2.76c.13.16.32.25.58.26c.08 0 .16-.01.24-.02c.08-.01.18-.04.29-.07h.07v1.03c-.13.05-.25.09-.39.13c-.19.04-.38.06-.57.06c-.52 0-.93-.13-1.23-.4c-.31-.27-.47-.69-.5-1.27v-.25h-.06c-.18.25-.39.49-.6.71c-.25.26-.54.48-.86.66c-.37.21-.76.37-1.16.48c-.44.12-.94.18-1.5.18a5.32 5.32 0 0 1-1.55-.2m3.48-1.24c.49-.2.91-.47 1.24-.79c.64-.6 1-1.43 1-2.3v-2.12c-.38.21-.84.38-1.38.49c-.54.12-1.1.21-1.68.29c-.5.08-.97.16-1.39.24s-.8.21-1.11.4c-.31.18-.56.43-.74.74c-.18.31-.27.72-.27 1.22c0 .41.07.75.22 1.03c.14.26.33.49.57.66c.25.17.53.29.83.35c.33.07.67.1 1 .1c.65-.01 1.21-.11 1.71-.31m7.35 4.42c-.79-.59-1.24-1.32-1.34-2.2h1.37c.12.68.49 1.17 1.11 1.47c.61.3 1.35.44 2.2.44c1.26 0 2.19-.3 2.79-.9s.9-1.43.9-2.48v-1.87h-.07c-.44.67-.95 1.18-1.53 1.53c-.58.35-1.32.52-2.21.52c-.78 0-1.47-.14-2.1-.43c-.61-.28-1.16-.69-1.6-1.21c-.44-.52-.78-1.13-1.02-1.86c-.24-.72-.35-1.52-.35-2.38c0-.96.14-1.8.41-2.54c.27-.74.64-1.36 1.1-1.86c.45-.49 1-.88 1.61-1.14c.62-.26 1.28-.39 1.95-.39c.91 0 1.66.19 2.26.56s1.09.88 1.48 1.51h.07V60.2h1.4v11.33c0 1.31-.37 2.36-1.1 3.17c-.9.94-2.21 1.41-3.94 1.41c-1.47.02-2.6-.27-3.39-.85m6.18-5.97c.62-.87.94-2.01.94-3.42c0-.7-.08-1.34-.23-1.92c-.15-.58-.39-1.08-.71-1.49c-.32-.41-.73-.75-1.2-.97c-.48-.23-1.04-.34-1.68-.34c-1.17 0-2.08.43-2.73 1.3c-.65.87-.97 2.02-.97 3.47c-.01.63.07 1.25.23 1.86c.15.57.38 1.06.68 1.48c.3.41.69.75 1.14.98c.46.24 1 .35 1.62.35c1.32 0 2.28-.43 2.91-1.3m7.14 2.55c-.66-.3-1.25-.74-1.72-1.3c-.46-.55-.82-1.21-1.06-1.96c-.24-.75-.37-1.57-.37-2.45c0-.88.13-1.7.39-2.45c.26-.75.62-1.4 1.08-1.96c.46-.55 1.04-1 1.69-1.3c.66-.31 1.4-.47 2.22-.47c.94 0 1.74.18 2.38.53c.63.34 1.17.84 1.57 1.43c.4.6.69 1.29.86 2.06c.17.79.25 1.59.25 2.39h-8.98c.01.63.11 1.25.29 1.86c.16.54.41 1.04.75 1.49c.33.43.76.77 1.24 1c.5.24 1.09.37 1.76.37c.99 0 1.75-.24 2.29-.72s.92-1.12 1.15-1.93h1.37c-.26 1.17-.79 2.11-1.6 2.8c-.81.7-1.88 1.05-3.21 1.05c-.89.02-1.67-.13-2.35-.44m5.56-8.21c-.15-.51-.37-.95-.66-1.32c-.29-.37-.67-.68-1.1-.88c-.44-.21-.97-.32-1.57-.32c-.61 0-1.14.11-1.59.32c-.45.2-.85.5-1.17.88a4.2 4.2 0 0 0-.76 1.31c-.2.53-.32 1.08-.38 1.64h7.48a6.02 6.02 0 0 0-.25-1.63m4.9-3.41v1.8h.05c.4-.6.94-1.1 1.56-1.47c.65-.39 1.44-.58 2.38-.58c1.09 0 2 .32 2.7.95c.71.63 1.06 1.54 1.06 2.73v8.37h-1.41v-8.23c0-.9-.24-1.55-.72-1.97c-.48-.42-1.14-.63-1.97-.63c-.48 0-.96.08-1.41.25c-.43.16-.82.39-1.16.69c-.33.29-.6.66-.79 1.06c-.19.42-.29.88-.29 1.34v7.48H95.3V60.22zm11.4 11.39c-.41-.33-.61-.87-.61-1.63v-8.6h-1.78v-1.16h1.78v-3.63h1.41v3.63h2.19v1.16h-2.19v8.37c0 .43.1.72.29.88c.19.16.47.24.85.24c.17 0 .34-.02.51-.06c.14-.03.29-.07.42-.13h.07v1.21c-.42.14-.86.21-1.3.21c-.68 0-1.23-.17-1.64-.49m7.17.23c-.66-.3-1.25-.75-1.72-1.3s-.83-1.21-1.08-1.96s-.38-1.57-.38-2.45c0-.88.13-1.7.38-2.45c.25-.75.61-1.41 1.08-1.96c.47-.56 1.06-1 1.72-1.3c.68-.31 1.44-.47 2.29-.47c.85 0 1.61.16 2.28.47c.66.3 1.24.75 1.71 1.3s.83 1.21 1.07 1.96c.24.75.36 1.57.37 2.45c0 .88-.12 1.7-.37 2.45c-.24.75-.6 1.4-1.07 1.96c-.47.55-1.05 1-1.71 1.3c-.67.31-1.43.47-2.28.47c-.85-.01-1.61-.16-2.29-.47m4.03-1.11c.5-.25.93-.62 1.25-1.07c.33-.46.59-.99.75-1.6c.33-1.27.33-2.6 0-3.87c-.17-.61-.42-1.14-.75-1.6c-.33-.45-.76-.82-1.25-1.07c-.5-.26-1.08-.39-1.73-.39c-.65 0-1.23.13-1.75.39c-.49.26-.92.62-1.25 1.07c-.34.46-.6.99-.76 1.6c-.33 1.27-.33 2.6 0 3.87c.17.61.42 1.14.76 1.6c.33.45.76.81 1.25 1.07s1.08.39 1.75.39c.67 0 1.25-.13 1.73-.39"></path></symbol>

        <symbol viewBox="0 0 256 302" id="paypal"><path fill="#27346A" d="M217.168 23.507C203.234 7.625 178.046.816 145.823.816h-93.52A13.393 13.393 0 0 0 39.076 12.11L.136 259.077c-.774 4.87 2.997 9.28 7.933 9.28h57.736l14.5-91.971l-.45 2.88c1.033-6.501 6.593-11.296 13.177-11.296h27.436c53.898 0 96.101-21.892 108.429-85.221c.366-1.873.683-3.696.957-5.477c-1.556-.824-1.556-.824 0 0c3.671-23.407-.025-39.34-12.686-53.765"></path><path fill="#27346A" d="M102.397 68.84a11.737 11.737 0 0 1 5.053-1.14h73.318c8.682 0 16.78.565 24.18 1.756a101.6 101.6 0 0 1 6.177 1.182a89.928 89.928 0 0 1 8.59 2.347c3.638 1.215 7.026 2.63 10.14 4.287c3.67-23.416-.026-39.34-12.687-53.765C203.226 7.625 178.046.816 145.823.816H52.295C45.71.816 40.108 5.61 39.076 12.11L.136 259.068c-.774 4.878 2.997 9.282 7.925 9.282h57.744L95.888 77.58a11.717 11.717 0 0 1 6.509-8.74"></path><path fill="#2790C3" d="M228.897 82.749c-12.328 63.32-54.53 85.221-108.429 85.221H93.024c-6.584 0-12.145 4.795-13.168 11.296L61.817 293.621c-.674 4.262 2.622 8.124 6.934 8.124h48.67a11.71 11.71 0 0 0 11.563-9.88l.474-2.48l9.173-58.136l.591-3.213a11.71 11.71 0 0 1 11.562-9.88h7.284c47.147 0 84.064-19.154 94.852-74.55c4.503-23.15 2.173-42.478-9.739-56.054c-3.613-4.112-8.1-7.508-13.327-10.28c-.283 1.79-.59 3.604-.957 5.477"></path><path fill="#1F264F" d="M216.952 72.128a89.928 89.928 0 0 0-5.818-1.49a109.904 109.904 0 0 0-6.177-1.174c-7.408-1.199-15.5-1.765-24.19-1.765h-73.309a11.57 11.57 0 0 0-5.053 1.149a11.683 11.683 0 0 0-6.51 8.74l-15.582 98.798l-.45 2.88c1.025-6.501 6.585-11.296 13.17-11.296h27.444c53.898 0 96.1-21.892 108.428-85.221c.367-1.873.675-3.688.958-5.477c-3.122-1.648-6.501-3.072-10.14-4.279a83.26 83.26 0 0 0-2.77-.865"></path></symbol>

        <symbol viewBox="0 0 256 180" id="salesforce"><path fill="#00A1E0" d="M106.553 19.651c8.248-8.594 19.731-13.924 32.43-13.924c16.883 0 31.612 9.414 39.455 23.389a54.52 54.52 0 0 1 22.3-4.74c30.449 0 55.134 24.9 55.134 55.615c0 30.719-24.685 55.62-55.134 55.62a54.69 54.69 0 0 1-10.86-1.083c-6.908 12.321-20.07 20.645-35.178 20.645a40.113 40.113 0 0 1-17.632-4.058c-7.002 16.47-23.316 28.019-42.33 28.019c-19.8 0-36.674-12.529-43.152-30.1c-2.83.602-5.763.915-8.772.915c-23.574 0-42.686-19.308-42.686-43.13a43.198 43.198 0 0 1 21.345-37.36a49.373 49.373 0 0 1-4.088-19.727C17.385 22.336 39.626.128 67.06.128c16.106 0 30.42 7.658 39.494 19.523"></path><path fill="#FFF" d="M37.17 92.956c-.16.419.058.506.11.58c.48.349.968.6 1.46.88c2.609 1.385 5.071 1.79 7.647 1.79c5.246 0 8.503-2.79 8.503-7.283v-.087c0-4.153-3.676-5.662-7.126-6.75l-.448-.147c-2.601-.845-4.845-1.573-4.845-3.286v-.09c0-1.465 1.311-2.544 3.344-2.544c2.259 0 4.94.75 6.667 1.705c0 0 .506.328.692-.164c.102-.262.976-2.615 1.068-2.87c.098-.277-.077-.481-.255-.59c-1.971-1.2-4.696-2.019-7.516-2.019l-.525.004c-4.801 0-8.153 2.9-8.153 7.057v.087c0 4.383 3.698 5.803 7.162 6.794l.558.172c2.524.775 4.7 1.442 4.7 3.22v.087c0 1.625-1.414 2.835-3.695 2.835c-.885 0-3.708-.018-6.758-1.946c-.368-.215-.583-.371-.867-.542c-.15-.095-.524-.26-.688.236l-1.035 2.871m76.8 0c-.16.419.058.506.11.58c.48.349.968.6 1.46.88c2.608 1.385 5.071 1.79 7.647 1.79c5.246 0 8.503-2.79 8.503-7.283v-.087c0-4.153-3.676-5.662-7.126-6.75l-.448-.147c-2.601-.845-4.846-1.573-4.846-3.286v-.09c0-1.465 1.312-2.544 3.345-2.544c2.259 0 4.94.75 6.667 1.705c0 0 .506.328.692-.164c.102-.262.976-2.615 1.067-2.87c.099-.277-.076-.481-.255-.59c-1.97-1.2-4.696-2.019-7.515-2.019l-.525.004c-4.802 0-8.153 2.9-8.153 7.057v.087c0 4.383 3.697 5.803 7.162 6.794l.557.172c2.525.775 4.704 1.442 4.704 3.22v.087c0 1.625-1.418 2.835-3.698 2.835a12.4 12.4 0 0 1-6.758-1.946c-.368-.215-.587-.364-.863-.542c-.095-.062-.54-.234-.693.236l-1.034 2.871m52.429-8.799c0 2.54-.474 4.54-1.406 5.953c-.922 1.4-2.317 2.08-4.263 2.08c-1.949 0-3.337-.677-4.244-2.08c-.918-1.41-1.384-3.413-1.384-5.953c0-2.535.466-4.532 1.384-5.93c.907-1.385 2.295-2.059 4.244-2.059c1.946 0 3.34.674 4.266 2.058c.93 1.4 1.403 3.396 1.403 5.931m4.379-4.707c-.43-1.453-1.1-2.735-1.993-3.803c-.893-1.071-2.022-1.93-3.363-2.557c-1.337-.623-2.918-.94-4.692-.94c-1.778 0-3.359.317-4.696.94c-1.34.626-2.47 1.486-3.366 2.557c-.889 1.071-1.56 2.354-1.993 3.803c-.426 1.447-.64 3.028-.64 4.707c0 1.68.214 3.265.64 4.707c.434 1.45 1.1 2.732 1.997 3.804a9.398 9.398 0 0 0 3.362 2.535c1.34.609 2.918.918 4.696.918c1.774 0 3.352-.31 4.692-.918a9.399 9.399 0 0 0 3.363-2.535c.893-1.068 1.563-2.35 1.993-3.804c.43-1.446.645-3.03.645-4.707c0-1.675-.215-3.26-.645-4.707m35.959 12.063c-.145-.426-.557-.266-.557-.266c-.637.244-1.315.47-2.036.583a15.83 15.83 0 0 1-2.401.171c-2.12 0-3.804-.63-5.01-1.876c-1.209-1.246-1.887-3.26-1.88-5.986c.008-2.48.606-4.346 1.68-5.767c1.068-1.413 2.692-2.138 4.86-2.138c1.807 0 3.184.207 4.627.663c0 0 .346.15.51-.303c.382-1.063.667-1.825 1.075-2.994c.116-.332-.168-.474-.27-.514c-.568-.222-1.909-.583-2.922-.736c-.947-.145-2.054-.222-3.286-.222c-1.84 0-3.479.313-4.882.94c-1.399.623-2.586 1.483-3.526 2.554c-.94 1.07-1.654 2.353-2.131 3.803c-.474 1.446-.714 3.035-.714 4.714c0 3.632.98 6.569 2.914 8.718c1.938 2.157 4.85 3.253 8.645 3.253c2.244 0 4.547-.455 6.2-1.107c0 0 .318-.153.18-.521l-1.076-2.97m7.663-9.787c.207-1.41.597-2.583 1.198-3.497c.907-1.388 2.291-2.15 4.237-2.15c1.945 0 3.231.765 4.153 2.15c.612.914.878 2.138.983 3.497zm14.743-3.1c-.372-1.403-1.294-2.82-1.898-3.468c-.955-1.028-1.887-1.746-2.813-2.146a10.84 10.84 0 0 0-4.248-.86c-1.85 0-3.53.31-4.892.95c-1.366.642-2.514 1.516-3.414 2.606c-.9 1.085-1.577 2.379-2.007 3.847c-.434 1.46-.652 3.053-.652 4.732c0 1.709.226 3.3.674 4.732c.451 1.443 1.173 2.715 2.15 3.767c.972 1.06 2.225 1.891 3.726 2.47c1.49.576 3.3.875 5.38.871c4.281-.015 6.537-.969 7.465-1.483c.164-.09.321-.251.124-.71l-.969-2.714c-.145-.405-.557-.255-.557-.255c-1.06.393-2.568 1.1-6.084 1.093c-2.299-.004-4.004-.682-5.071-1.742c-1.097-1.085-1.632-2.68-1.727-4.932l14.824.014s.39-.007.43-.386c.014-.16.51-3.046-.441-6.386m-133.46 3.1c.211-1.41.597-2.583 1.199-3.497c.907-1.388 2.291-2.15 4.236-2.15c1.946 0 3.232.765 4.157 2.15c.609.914.875 2.138.98 3.497zm14.74-3.1c-.372-1.403-1.29-2.82-1.895-3.468c-.954-1.028-1.887-1.746-2.812-2.146a10.84 10.84 0 0 0-4.248-.86c-1.847 0-3.53.31-4.892.95c-1.367.642-2.514 1.516-3.414 2.606c-.9 1.085-1.577 2.379-2.007 3.847c-.43 1.46-.652 3.053-.652 4.732c0 1.709.225 3.3.674 4.732c.451 1.443 1.173 2.715 2.149 3.767c.973 1.06 2.226 1.891 3.727 2.47c1.49.576 3.3.875 5.38.871c4.281-.015 6.536-.969 7.465-1.483c.164-.09.32-.251.124-.71l-.965-2.714c-.15-.405-.561-.255-.561-.255c-1.06.393-2.565 1.1-6.088 1.093c-2.295-.004-4-.682-5.067-1.742c-1.097-1.085-1.633-2.68-1.727-4.932l14.823.014s.39-.007.43-.386c.015-.16.51-3.046-.444-6.386M63.642 91.431c-.58-.462-.66-.579-.856-.878c-.292-.455-.441-1.104-.441-1.927c0-1.304.43-2.24 1.322-2.87c-.01.003 1.275-1.112 4.3-1.072c2.123.03 4.021.343 4.021.343v6.74h.004s-1.884.404-4.004.531c-3.017.182-4.357-.87-4.346-.867m5.898-10.415c-.601-.044-1.38-.07-2.313-.07c-1.272 0-2.5.16-3.65.47a9.516 9.516 0 0 0-3.097 1.436a7.148 7.148 0 0 0-2.15 2.444c-.524.977-.79 2.128-.79 3.417c0 1.312.225 2.452.677 3.385a6.1 6.1 0 0 0 1.935 2.317c.823.601 1.84 1.042 3.02 1.308c1.162.266 2.48.4 3.923.4c1.52 0 3.035-.123 4.503-.375a94.111 94.111 0 0 0 3.734-.721c.492-.117 1.039-.266 1.039-.266c.368-.091.338-.485.338-.485l-.007-13.555c0-2.973-.794-5.177-2.357-6.543c-1.555-1.363-3.847-2.051-6.809-2.051c-1.11 0-2.9.153-3.97.368c0 0-3.24.626-4.573 1.668c0 0-.291.182-.131.59l1.05 2.82c.13.364.484.24.484.24s.113-.043.244-.12c2.852-1.552 6.459-1.504 6.459-1.504c1.603 0 2.834.32 3.665.958c.809.619 1.22 1.555 1.22 3.53v.626c-1.275-.182-2.444-.287-2.444-.287m119.56-7.639a.4.4 0 0 0-.223-.532c-.251-.098-1.512-.364-2.485-.426c-1.861-.113-2.896.2-3.821.616c-.918.415-1.938 1.085-2.507 1.847v-1.804c0-.251-.178-.451-.426-.451h-3.8c-.247 0-.426.2-.426.451v22.11c0 .248.204.452.452.452h3.894a.45.45 0 0 0 .448-.452V84.142c0-1.482.164-2.962.492-3.89c.32-.919.758-1.654 1.297-2.183a4.551 4.551 0 0 1 1.833-1.1c.688-.211 1.45-.28 1.989-.28c.776 0 1.628.2 1.628.2c.284.033.445-.142.54-.4c.254-.678.976-2.708 1.114-3.112"></path><path fill="#FFF" d="M152.544 63.13a12.74 12.74 0 0 0-1.465-.35a11.604 11.604 0 0 0-2.014-.152c-2.682 0-4.795.757-6.277 2.251c-1.476 1.486-2.478 3.749-2.98 6.725l-.183 1.002h-3.366s-.408-.015-.495.43l-.55 3.086c-.04.291.087.477.48.477h3.276l-3.323 18.55c-.258 1.494-.557 2.722-.889 3.654c-.324.918-.64 1.607-1.034 2.11c-.38.48-.736.838-1.356 1.045c-.51.172-1.1.252-1.745.252c-.357 0-.834-.059-1.187-.131a3.511 3.511 0 0 1-.802-.26s-.382-.145-.535.238c-.12.317-.995 2.717-1.1 3.013c-.102.295.043.524.229.593c.437.153.761.255 1.355.397c.824.194 1.52.204 2.172.204c1.362 0 2.608-.193 3.639-.564c1.035-.375 1.938-1.028 2.74-1.91c.863-.954 1.406-1.952 1.923-3.318c.514-1.348.955-3.024 1.304-4.976l3.341-18.897h4.882s.411.014.495-.434l.554-3.082c.036-.295-.087-.477-.485-.477h-4.74c.026-.106.241-1.774.784-3.344c.233-.667.67-1.21 1.038-1.581a3.11 3.11 0 0 1 1.243-.773c.47-.153 1.005-.226 1.592-.226c.444 0 .885.051 1.216.12c.46.099.638.15.758.186c.485.146.55.004.645-.23l1.133-3.11c.117-.335-.171-.478-.273-.518M86.322 95.19c0 .247-.179.448-.426.448h-3.931c-.248 0-.423-.2-.423-.448V63.553c0-.247.175-.448.423-.448h3.93c.248 0 .427.2.427.448V95.19"></path></symbol>

    </defs>
</svg>
